{"title":"37 2016 WEB-DL XviD AC3-FGT","uid":15979463,"size":973079082,"categoryP":"video","categoryS":"movies","magnet":"?xt=urn:btih:1739338527e629c9918e0c8ac7d6e235dfd2af0a&amp;dn=37+2016+WEB-DL+XviD+AC3-FGT&amp;tr=udp%3A%2F%2Ftracker.leechers-paradise.org%3A6969&amp;tr=udp%3A%2F%2Fzer0day.ch%3A1337&amp;tr=udp%3A%2F%2Fopen.demonii.com%3A1337&amp;tr=udp%3A%2F%2Ftracker.coppersurfer.tk%3A6969&amp;tr=udp%3A%2F%2Fexodus.desync.com%3A6969","seeders":4,"leechers":0,"uploader":"PirateNeon2","files":1,"time":1475880220,"description":"Plot:\t&quot;37&quot; is a powerful drama and a fictional account of the night Kitty Genovese was murdered in 1964| Kew Gardens| Queens| where 37 neighbors witnessed the killing and\r\ndid not intervene. &quot;37&quot; examines the lives of a group of families during the day and night of a tragedy that shocked America.\r\n\r\nVideo\r\nID                                       : 0\r\nFormat                                   : MPEG-4 Visual\r\nFormat profile                           :   \r\nFormat settings, BVOP                    : No\r\nFormat settings, QPel                    : No\r\nFormat settings, GMC                     : No warppoints\r\nFormat settings, Matrix                  : Default (H.263)\r\nCodec ID                                 : XVID\r\nCodec ID/Hint                            : XviD\r\nDuration                                 : 1h 21mn\r\nBit rate                                 : 1 192 Kbps\r\nWidth                                    : 720 pixels\r\nHeight                                   : 384 pixels\r\nDisplay aspect ratio                     : 1.85:1\r\nFrame rate                               : 23.976 fps\r\nColor space                              : YUV\r\nChroma subsampling                       : 4:2:0\r\nBit depth                                : 8 bits\r\nScan type                                : Progressive\r\nCompression mode                         : Lossy\r\nBits/(Pixel*Frame)                       : 0.180\r\nStream size                              : 698 MiB (75%)\r\nWriting library                          : Lavc57.16.101\r\n\r\nAudio\r\nID                                       : 1\r\nFormat                                   : AC-3\r\nFormat/Info                              : Audio Coding 3\r\nMode extension                           : CM (complete main)\r\nFormat settings, Endianness              : Big\r\nCodec ID                                 : 2000\r\nDuration                                 : 1h 21mn\r\nBit rate mode                            : Constant\r\nBit rate                                 : 384 Kbps\r\nChannel(s)                               : 6 channels\r\nChannel positions                        : Front: L C R, Side: L R, LFE\r\nSampling rate                            : 48.0 KHz\r\nFrame rate                               : 31.250 fps (1536 spf)\r\nCompression mode                         : Lossy\r\nStream size                              : 225 MiB (24%)\r\nAlignment                                : Aligned on interleaves\r\nInterleave, duration                     : 42 ms (1.00 video frame)\r\nInterleave, preload duration             : 512 ms","torrent":{"xt":"urn:btih:1739338527e629c9918e0c8ac7d6e235dfd2af0a","amp;dn":"37+2016+WEB-DL+XviD+AC3-FGT","amp;tr":["udp%3A%2F%2Ftracker.leechers-paradise.org%3A6969","udp%3A%2F%2Fzer0day.ch%3A1337","udp%3A%2F%2Fopen.demonii.com%3A1337","udp%3A%2F%2Ftracker.coppersurfer.tk%3A6969","udp%3A%2F%2Fexodus.desync.com%3A6969"],"infoHash":"1739338527e629c9918e0c8ac7d6e235dfd2af0a","infoHashBuffer":{"type":"Buffer","data":[23,57,51,133,39,230,41,201,145,142,12,138,199,214,226,53,223,210,175,10]},"announce":[],"urlList":[]}}